# xmcd CD database file
#
# Track frame offsets:
#	150
#	12991
#	24028
#	36959
#	50644
#	67717
#	80721
#	93082
#	106955
#	117958
#
# Disc length: 1706 seconds
#
# Revision: 2
# Processed by: cddbd v1.5.1PL2 Copyright (c) Steve Scherf et al.
# Submitted via: CDex 1.70beta2
#
DISCID=7006a80a
DTITLE=Various Artist - 30 #1 Country Hits Disc 1
DYEAR=2006
DGENRE=Country
TTITLE0=Johnny Cash - Folsom Prison Blues
TTITLE1=Hank Williams - I'll Never Get Out Of This World
TTITLE2=Merle Haggard - The Fightin' Side Of Me
TTITLE3=Willie Nelson and Leon Russell - Heartbreak Hotel
TTITLE4=Ray Price - For The Good Times
TTITLE5=Tammy Wynette and David Houston - My Elusive Dreams
TTITLE6=Freddy Fender - Wasted Days And Wasted Nights
TTITLE7=Mickey Gilley - Don't The Girls All Get Prettier At Closing Time (Live)
TTITLE8=Carl Smith - Hey Joe
TTITLE9=Jim Reeves - He'll Have To Go (Live)
EXTD=YEAR: 2006
EXTT0=
EXTT1=
EXTT2=
EXTT3=
EXTT4=
EXTT5=
EXTT6=
EXTT7=
EXTT8=
EXTT9=
PLAYORDER=
